inDegrees=no
num_controls=7
num_derivatives=13
num_iterations=225
num_multipliers=7
num_parameters=0
num_slacks=7
num_states=26
objective=0.545963
objective_accelerations=0.057753
objective_balance=0.003253
objective_effort=0.044511
objective_height=0.431179
objective_ligament=0.009266
solver_duration=2673.106807
status=Solve_Succeeded
success=true
DataType=double
version=3
OpenSimVersion=4.5
endheader
time	/jointset/ground_pelvis/pelvis_tilt/value	/jointset/ground_pelvis/pelvis_tx/value	/jointset/ground_pelvis/pelvis_ty/value	/jointset/hip_r/hip_flexion_r/value	/jointset/hip_r/hip_adduction_r/value	/jointset/hip_r/hip_rotation_r/value	/jointset/back/lumbar_extension/value	/jointset/patellofemoral_r/patellar_flexion_r/value	/jointset/knee_r/knee_flexion_r/value	/jointset/knee_r/knee_adduction_r/value	/jointset/knee_r/knee_rotation_r/value	/jointset/ankle_r/ankle_angle_r/value	/jointset/subtalar_r/subtalar_angle_r/value	/jointset/ground_pelvis/pelvis_tilt/speed	/jointset/ground_pelvis/pelvis_tx/speed	/jointset/ground_pelvis/pelvis_ty/speed	/jointset/hip_r/hip_flexion_r/speed	/jointset/hip_r/hip_adduction_r/speed	/jointset/hip_r/hip_rotation_r/speed	/jointset/back/lumbar_extension/speed	/jointset/patellofemoral_r/patellar_flexion_r/speed	/jointset/knee_r/knee_flexion_r/speed	/jointset/knee_r/knee_adduction_r/speed	/jointset/knee_r/knee_rotation_r/speed	/jointset/ankle_r/ankle_angle_r/speed	/jointset/subtalar_r/subtalar_angle_r/speed	/forceset/tau_hip_flexion_r	/forceset/tau_hip_adduction_r	/forceset/tau_hip_rotation_r	/forceset/tau_knee_flexion_r	/forceset/tau_ankle_angle_r	/forceset/tau_subtalar_angle_r	/forceset/tau_lumbar_extension	lambda_cid13_p0	lambda_cid14_p0	lambda_cid14_p1	lambda_cid14_p2	lambda_cid14_p3	lambda_cid14_p4	lambda_cid14_p5	/jointset/ground_pelvis/pelvis_tilt/accel	/jointset/ground_pelvis/pelvis_tx/accel	/jointset/ground_pelvis/pelvis_ty/accel	/jointset/hip_r/hip_flexion_r/accel	/jointset/hip_r/hip_adduction_r/accel	/jointset/hip_r/hip_rotation_r/accel	/jointset/back/lumbar_extension/accel	/jointset/patellofemoral_r/patellar_flexion_r/accel	/jointset/knee_r/knee_flexion_r/accel	/jointset/knee_r/knee_adduction_r/accel	/jointset/knee_r/knee_rotation_r/accel	/jointset/ankle_r/ankle_angle_r/accel	/jointset/subtalar_r/subtalar_angle_r/accel	gamma_cid13_p0	gamma_cid14_p0	gamma_cid14_p1	gamma_cid14_p2	gamma_cid14_p3	gamma_cid14_p4	gamma_cid14_p5
1.5	-0.1867718305654402	0.02320775549788849	0.8306135464232277	0.8941633851104659	-0.21933572158363	-0.1351175569219533	-0.3007109871789977	0.7939550887266514	0.79395508872661	-0.008925426761620548	0.1745304868148232	0.2664745803806066	0.07205118408982476	0.4323599174029521	0.190819691584825	0.503676770531774	-2.063800140315204	0.005654951554455049	-0.2347968401625932	0.7025501083005178	-2.150202143594877	-2.150202143594884	0.4220609219099162	-9.408931944506422e-05	-0.626961863193912	-0.183671081264518	-0.1173831064875471	-0.02262200540650336	0.01141332711646023	-0.3434450882202009	0.08277144908667287	-0.003856084577735488	0.1576063572879467	-25.67410121687359	-13.84965115162314	-0.9592234736650779	-2.974251877040659	-1.628577402635009	-647.3794817724071	62.11751415029084	0.3354460731798326	0.526782957925975	-0.6669998441170578	-1.081552231074155	-0.1520209306995585	-0.7392474562634109	1.581183824441113	-1.212218161712063	-1.212218161712065	0.425732047246289	-0.07178136025903127	-0.6416888286122618	-0.2204241694540824	1.358077536751748e-07	-1.396914574994283e-07	-2.783420756469759e-06	-1.095176080279486e-06	4.013828094092877e-07	-7.728645858881918e-09	-1.244587241195453e-06
1.51	-0.1824320496974043	0.0251419736017712	0.8356158476068954	0.8734740672703494	-0.219286584228216	-0.1375084552569918	-0.2936075964023665	0.7723952735113094	0.7723952735112802	-0.004687790073816607	0.174530374160596	0.2601738273845212	0.07020418394052878	0.4355305123825845	0.1959881287191493	0.4966733731833614	-2.073773520224169	0.004171830371398129	-0.2433312516916471	0.7180144259908219	-2.16144740669043	-2.161447406690443	0.4254965507249526	4.830558329999428e-05	-0.6330974675783783	-0.1856963251711393	-0.1103696094729264	-0.02374096209258791	0.0110929539833456	-0.3390051239749927	0.0853226685923994	-0.005302848083320181	0.1512036849681324	-27.0141430209232	-12.83456128527073	-1.316970187165476	-3.02327369196477	-1.832965188357831	-642.3911332984624	61.46463351954075	0.2979735764281155	0.5066442599892782	-0.7335738710992155	-0.9117883358624943	-0.1474037732733345	-0.9028893094957785	1.512012586105999	-1.03367854210509	-1.033678542105963	0.3062894062653141	0.05311604643768641	-0.5856817229758572	-0.1896923223567974	1.190257589349321e-07	-3.110569645501957e-07	-3.594782509827292e-06	-2.496385865117036e-06	5.992611953695059e-07	-1.684135784812361e-07	-1.278780262464999e-06
1.52	-0.1780625414063568	0.02712683011075791	0.8405448019788999	0.8526937041381329	-0.2192524672968651	-0.1399831679689751	-0.2863529710798759	0.7507324060332858	0.7507324060332694	-0.0004150348763358971	0.1745308586815748	0.2538144812486688	0.06833770778794845	0.4383054020051422	0.2009473726056245	0.489007408199114	-2.08200919873533	0.002650866741758022	-0.2515597155514769	0.7327970174723625	-2.170812596131109	-2.170812596131129	0.4290846238453092	2.534572190137881e-05	-0.6386804911473262	-0.1875662819213865	-0.1033561124583048	-0.02485991877867258	0.01077258085023886	-0.3345651597297841	0.08787388809812564	-0.006749611588905545	0.1448010126483191	-28.33448261883596	-11.82548961925355	-1.675333082363857	-3.072693247683788	-2.0202074011005	-637.5058458390766	60.78749448501611	0.2563050017649062	0.4849443083561552	-0.7995133712840173	-0.7340119515136705	-0.1595894200161946	-0.6780579224186002	1.444838582688443	-0.8362034307372997	-0.8362034307373095	0.4562209083103499	-0.1048523130877694	-0.5311726655085766	-0.1893667381792701	1.07007391923021e-07	-4.209523617319909e-07	-4.078502306097633e-06	-3.426007317452667e-06	7.20595671799888e-07	-2.796746691290232e-07	-1.211488852282116e-06
1.53	-0.1736673308542662	0.02916020781749016	0.8453939009833846	0.8318397155081465	-0.2192332823834881	-0.1425401535690444	-0.2789540571719789	0.7289852512705992	0.7289852512705919	0.003892745300529309	0.1745310800418612	0.2474022596849433	0.06645398221930521	0.4406633481822229	0.2056899795709548	0.4807129477120039	-2.088494185780637	0.001196849597754136	-0.2598273686944949	0.7468612929799244	-2.17830335661267	-2.17830335661271	0.4324561239533288	2.105829570450876e-05	-0.6436621082139035	-0.1891305673725241	-0.09613442010576762	-0.02661813016799252	0.01022983493145593	-0.3306673129031193	0.09094095692116075	-0.007741143116610451	0.1382803428660336	-29.63347546124788	-10.64541341652431	-1.770259696324145	-3.204993741487419	-2.369605083520271	-632.9828373649622	60.68584088450985	0.2144975408404811	0.4633469190990916	-0.8594031101024391	-0.5616444608701808	-0.137727991277355	-0.8998007158224411	1.36855136574198	-0.6582816530183053	-0.6582816530213733	0.2745051856587979	0.05131235495763826	-0.466260917610729	-0.13387678233855	1.00050379372462e-07	-4.65535767178004e-07	-4.214102522962837e-06	-3.854566166505014e-06	7.606022443548202e-07	-3.384229276788331e-07	-1.036370233681029e-06
